# xmcd CD database file
#
# Track frame offsets:
#	150
#	17647
#	31754
#	43941
#	56788
#	72860
#	83480
#	100482
#	108387
#	123777
#	136692
#	153739
#	174431
#	191321
#	201813
#
# Disc length: 2888 seconds
#
# Revision: 0
# Processed by: cddbd v1.5.1PL0 Copyright (c) Steve Scherf et al.
# Submitted via: CDex 1.51
#
DISCID=c00b460f
DTITLE=Allison Durbin - Shining Star
DYEAR=1980
DGENRE=Country
TTITLE0=Falling In Love
TTITLE1=Better Love Next Time
TTITLE2=Rockabilly Rebel
TTITLE3=More Than I Can Say
TTITLE4=That Lovin' You Fellin' Again
TTITLE5=Hooked On You
TTITLE6=Together We Are Beautiful
TTITLE7=Blue Moon Of Kentucky
TTITLE8=Shining Star
TTITLE9=Crazy
TTITLE10=Don't Fall In Love With A Dreamer
TTITLE11=Should've Never Let You Go
TTITLE12=He Believes In Me
TTITLE13=Sweet Dreams
TTITLE14=He's Out Of My Life
EXTD=YEAR: 1980
EXTT0=
EXTT1=
EXTT2=
EXTT3=
EXTT4=
EXTT5=
EXTT6=
EXTT7=
EXTT8=
EXTT9=
EXTT10=
EXTT11=
EXTT12=
EXTT13=
EXTT14=
PLAYORDER=
